<svg id="visual" viewBox="0 0 256 256" width="256" height="256" xmlns="http://www.w3.org/2000/svg" xmlns:xlink="http://www.w3.org/1999/xlink" version="1.1"><rect x="0" y="0" width="256" height="256" fill="#001220"></rect><defs><linearGradient id="grad1_0" x1="0%" y1="0%" x2="100%" y2="100%"><stop offset="30%" stop-color="#001220" stop-opacity="1"></stop><stop offset="70%" stop-color="#001220" stop-opacity="1"></stop></linearGradient></defs><defs><linearGradient id="grad2_0" x1="0%" y1="0%" x2="100%" y2="100%"><stop offset="30%" stop-color="#001220" stop-opacity="1"></stop><stop offset="70%" stop-color="#001220" stop-opacity="1"></stop></linearGradient></defs><g transform="translate(256, 0)"><path d="M0 162.9C-22.4 161.8 -44.7 160.7 -62.3 150.5C-80 140.3 -92.8 120.9 -103.9 103.9C-115.1 87 -124.4 72.4 -134 55.5C-143.5 38.6 -153.2 19.3 -162.9 0L0 0Z" fill="#FBAE3C"></path></g><g transform="translate(0, 256)"><path d="M0 -162.9C18.1 -148.3 36.3 -133.7 50.5 -122C64.8 -110.2 75.1 -101.5 93.3 -93.3C111.6 -85.2 137.6 -77.8 150.5 -62.3C163.4 -46.9 163.2 -23.5 162.9 0L0 0Z" fill="#FBAE3C"></path></g></svg>